<svg xmlns="http://www.w3.org/2000/svg" width="26" height="26" viewBox="0 0 24 24" fill="none" stroke="var(--project-art-detail, #aa8bcf)" stroke-width="1.1" stroke-linecap="round" stroke-linejoin="round" aria-hidden="true" focusable="false"><g transform="translate(1 -1) scale(.85)"><path d="M3.31944518,5.48688243l7.68055482,-2.98688243c0.66666667,-0.26666667 1.33333333,-0.26666667 2,0l7.68055482,2.98688243c0.60560171,0.23551177 0.64363109,0.87355175 0.07029228,1.17933245l-7.74330197,4.12976105c-0.00603611,0.00321926 -0.0090713,0.00479596 -0.01519936,0.00783654c-0.66156385,0.32825004 -1.32312769,0.32825004 -1.98469154,0c-0.00612806,-0.00304058 -0.00916326,-0.00461728 -0.01519936,-0.00783654l-7.74330197,-4.12976105c-0.57333881,-0.3057807 -0.53530942,-0.94382067 0.07029228,-1.17933245z" fill="var(--project-art-back, #d9c9ed)" stroke="var(--project-art-back, #d9c9ed)" stroke-width="0.55"/><path d="M3.31944518,10.48688243l7.68055482,-2.98688243c0.66666667,-0.26666667 1.33333333,-0.26666667 2,0l7.68055482,2.98688243c0.60560171,0.23551177 0.64363109,0.87355175 0.07029228,1.17933245l-7.74330197,4.12976105c-0.00603611,0.00321926 -0.0090713,0.00479596 -0.01519936,0.00783654c-0.66156385,0.32825004 -1.32312769,0.32825004 -1.98469154,0c-0.00612806,-0.00304058 -0.00916326,-0.00461728 -0.01519936,-0.00783654l-7.74330197,-4.12976105c-0.57333881,-0.3057807 -0.53530942,-0.94382067 0.07029228,-1.17933245z" fill="var(--project-art-surface, #f0e9f8)" stroke="var(--project-art-surface, #f0e9f8)" stroke-width="0.55"/><path d="M3.31944518,15.48688243l7.68055482,-2.98688243c0.66666667,-0.26666667 1.33333333,-0.26666667 2,0l7.68055482,2.98688243c0.60560171,0.23551177 0.64363109,0.87355175 0.07029228,1.17933245l-7.74330197,4.12976105c-0.00603611,0.00321926 -0.0090713,0.00479596 -0.01519936,0.00783654c-0.66156385,0.32825004 -1.32312769,0.32825004 -1.98469154,0c-0.00612806,-0.00304058 -0.00916326,-0.00461728 -0.01519936,-0.00783654l-7.74330197,-4.12976105c-0.57333881,-0.3057807 -0.53530942,-0.94382067 0.07029228,-1.17933245z" fill="var(--project-art-back, #d9c9ed)" stroke="var(--project-art-back, #d9c9ed)" stroke-width="0.55"/></g><g transform="translate(18.4 18.5) scale(0.94)"><path d="M-2 0H2M0-2V2" fill="none"/></g></svg>
