<svg xmlns="http://www.w3.org/2000/svg" width="26" height="26" viewBox="0 0 24 24" fill="none" stroke="var(--project-art-detail, #aa8bcf)" stroke-width="1.1" stroke-linecap="round" stroke-linejoin="round" aria-hidden="true" focusable="false">
  <path d="M2.909,2h18.182c0.606,0 0.909,0.303 0.909,0.909v18.182c0,0.606 -0.303,0.909 -0.909,0.909h-18.182c-0.606,0 -0.909,-0.303 -0.909,-0.909v-18.182c0,-0.606 0.303,-0.909 0.909,-0.909z" fill="var(--project-art-surface, #f0e9f8)" stroke="none" data-layer="surface" />
  <path d="M22,9.739v10.578l-5.18,1.683l-13.137,0l-1.683,-5.18l0,-0.435c4.325,-7.229 14.185,0.191 20,-6.647z" fill="var(--project-art-back, #d9c9ed)" stroke="none" data-layer="back" />
  <path d="M18.364,2v20" fill="none" data-layer="detail" />
  <path d="M12.909,11.091c0,1.506 -1.221,2.727 -2.727,2.727c-1.506,0 -2.727,-1.221 -2.727,-2.727c0,-1.506 1.221,-2.727 2.727,-2.727c1.506,0 2.727,1.221 2.727,2.727z" fill="none" data-layer="detail" />
  <path d="M6.545,16.545c0.403,-1.568 1.942,-2.727 3.636,-2.727c1.694,0 3.234,1.158 3.636,2.727" fill="none" data-layer="detail" />
  <path d="M18.364,15.636h2.909" fill="none" data-layer="detail" />
  <path d="M18.364,8.364h2.909" fill="none" data-layer="detail" />
</svg>
