<svg xmlns="http://www.w3.org/2000/svg" width="26" height="26" viewBox="0 0 24 24" fill="none" stroke="var(--project-art-detail, #aa8bcf)" stroke-width="0.75" stroke-linecap="round" stroke-linejoin="round" aria-hidden="true" focusable="false"><rect x="3" y="5" width="11" height="14" rx="2" fill="var(--project-art-surface, #f0e9f8)" stroke="none" ry="2"/><path d="M14.84,10h2.74c0.336,0 0.4704,0.0672 0.672,0.336l2.58,3.44c0.1344,0.1792 0.168,0.28 0.168,0.504v3.88c0,0.65336667 -0.18663333,0.84 -0.84,0.84h-5.32c-0.65336667,0 -0.84,-0.18663333 -0.84,-0.84v-7.32c0,-0.65336667 0.18663333,-0.84 0.84,-0.84z" fill="var(--project-art-back, #d9c9ed)" stroke="none"/><circle cx="7" cy="19" r="2" fill="var(--project-art-detail, #aa8bcf)" stroke="none"/><circle cx="18" cy="19" r="2" fill="var(--project-art-detail, #aa8bcf)" stroke="none"/><path d="M16.64,12h0.86557281c0.30301765,0 0.58002814,0.1712019 0.71554175,0.44222912l0.45888544,0.91777088c0.14701931,0.29403863 -0.06679657,0.64 -0.39554175,0.64h-1.64445825c-0.35346224,0 -0.64,-0.28653776 -0.64,-0.64v-0.72c0,-0.35346224 0.28653776,-0.64 0.64,-0.64z M5,8h6 M13,16h2" fill="none"/></svg>
