<svg xmlns="http://www.w3.org/2000/svg" width="26" height="26" viewBox="0 0 24 24" fill="none" stroke="var(--project-art-detail, #aa8bcf)" stroke-width="1.1" stroke-linecap="round" stroke-linejoin="round" aria-hidden="true" focusable="false"><path d="M5.65,6h11.7c0.50558135,0 0.65,0.14441865 0.65,0.65v10.7c0,0.50558135 -0.14441865,0.65 -0.65,0.65h-11.7c-0.50558135,0 -0.65,-0.14441865 -0.65,-0.65v-10.7c0,-0.50558135 0.14441865,-0.65 0.65,-0.65z" fill="var(--project-art-surface, #f0e9f8)" stroke="none"/><path d="M4 3H19Q21 3 21 5Q21 7 19 7H4Q2 7 2 5Q2 3 4 3Z" fill="var(--project-art-back, #d9c9ed)" stroke="none"/><path d="M20 7v11M5 18h13" fill="none"/><circle cx="20" cy="20" r="1" fill="var(--project-art-back, #d9c9ed)" stroke="none"/></svg>
